<svg xmlns="http://www.w3.org/2000/svg" width="128" height="128" viewBox="0 0 128 128"><defs><linearGradient id="checkLeftGrad" x1="0%" x2="100%" y1="0%" y2="100%"><stop offset="0%" stop-color="#34d399"/><stop offset="100%" stop-color="#10b981"/></linearGradient><linearGradient id="checkRightGrad" x1="0%" x2="100%" y1="0%" y2="100%"><stop offset="0%" stop-color="#059669"/><stop offset="100%" stop-color="#047857"/></linearGradient><pattern id="cyberGrid" width="8" height="8" patternUnits="userSpaceOnUse"><path fill="none" stroke="#fff" stroke-opacity=".12" stroke-width=".75" d="M8 0H0v8"/></pattern><filter id="materialShadow" width="140%" height="140%" x="-20%" y="-20%"><feDropShadow dx="0" dy="4" flood-color="#000" flood-opacity=".3" stdDeviation="4.5"/></filter></defs><path fill="#2563eb" d="M64 16 24 28c0 40 18 70 40 86Z"/><path fill="#1d4ed8" d="m64 16 40 12c0 40-18 70-40 86Z"/><path fill="url(#cyberGrid)" d="m64 16 40 12c0 40-18 70-40 86-22-16-40-46-40-86Z"/><path fill="none" stroke="#60a5fa" stroke-opacity=".5" stroke-width="2" d="M64 22 30 32c0 32 16 60 34 75"/><path fill="none" stroke="#3b82f6" stroke-opacity=".5" stroke-width="2" d="m64 22 34 10c0 32-16 60-34 75"/><g opacity=".95" transform="translate(74 34)"><rect width="6" height="6" fill="#e53935" rx="1.5"/><rect width="6" height="6" x="8" fill="#43a047" rx="1.5"/><rect width="6" height="6" y="8" fill="#1e88e5" rx="1.5"/><rect width="6" height="6" x="8" y="8" fill="#ffb300" rx="1.5"/></g><g filter="url(#materialShadow)"><path fill="url(#checkLeftGrad)" d="m42 60 14 16v14L42 74Z"/><path fill="url(#checkRightGrad)" d="m56 76 30-36v14L56 90Z"/><path fill="#fff" fill-opacity=".15" d="m42 60 14 16v4L42 64Z"/></g></svg>